<svg xmlns="http://www.w3.org/2000/svg" viewBox="0 0 32 32" fill="none">
  <!-- Dark circle background -->
  <circle cx="16" cy="16" r="16" fill="#2B2B2B"/>
  
  <!-- Winged key design -->
  <g transform="translate(16, 16) scale(0.6)">
    <!-- Key head (circle with hole) -->
    <circle cx="0" cy="-8" r="5" fill="white" stroke="white" stroke-width="0.5"/>
    <circle cx="0" cy="-8" r="2.5" fill="#2B2B2B"/>
    
    <!-- Key shaft -->
    <rect x="-1" y="-4" width="2" height="12" fill="white"/>
    
    <!-- Key teeth -->
    <rect x="-1" y="6" width="4" height="1" fill="white"/>
    <rect x="-1" y="4" width="3" height="1" fill="white"/>
    
    <!-- Left wing -->
    <path d="M -6 -8
             Q -10 -9, -12 -7
             Q -10 -7.5, -6 -6
             Z" 
          fill="white" opacity="0.9"/>
    <path d="M -6 -6
             Q -9 -6.5, -11 -5
             Q -9 -5.5, -6 -4
             Z" 
          fill="white" opacity="0.8"/>
    <path d="M -6 -4
             Q -8 -4, -9 -2
             Q -7.5 -2.5, -6 -2
             Z" 
          fill="white" opacity="0.7"/>
    
    <!-- Right wing -->
    <path d="M 6 -8
             Q 10 -9, 12 -7
             Q 10 -7.5, 6 -6
             Z" 
          fill="white" opacity="0.9"/>
    <path d="M 6 -6
             Q 9 -6.5, 11 -5
             Q 9 -5.5, 6 -4
             Z" 
          fill="white" opacity="0.8"/>
    <path d="M 6 -4
             Q 8 -4, 9 -2
             Q 7.5 -2.5, 6 -2
             Z" 
          fill="white" opacity="0.7"/>
  </g>
</svg>