<svg xmlns="http://www.w3.org/2000/svg" viewBox="0 0 32 32" fill="none">
  <!-- Dark circle background -->
  <circle cx="16" cy="16" r="16" fill="#000000"/>
  
  <!-- Winged key design -->
  <g transform="translate(16, 16) scale(0.32)">
    <!-- Key body -->
    <path d="M 0 -50 
             C -15 -50, -25 -40, -25 -25
             C -25 -10, -15 0, 0 0
             C 15 0, 25 -10, 25 -25
             C 25 -40, 15 -50, 0 -50
             Z
             M 0 -35
             C -7 -35, -12 -30, -12 -25
             C -12 -18, -7 -13, 0 -13
             C 7 -13, 12 -18, 12 -25
             C 12 -30, 7 -35, 0 -35
             Z
             M -3 0
             L -3 40
             L 3 40
             L 3 0
             Z
             M -3 40
             L -3 45
             L 8 45
             L 8 40
             Z
             M -3 48
             L -3 53
             L 8 53
             L 8 48
             Z" 
          fill="#FFFFFF"/>
    
    <!-- Left wing -->
    <g transform="rotate(-15)">
      <path d="M -25 -25
               C -45 -30, -60 -28, -70 -20
               C -60 -22, -45 -24, -25 -18
               Z" 
            fill="#FFFFFF"/>
      <path d="M -25 -18
               C -42 -20, -55 -18, -65 -10
               C -55 -12, -42 -14, -25 -10
               Z" 
            fill="#FFFFFF"/>
      <path d="M -25 -10
               C -38 -12, -48 -10, -55 -2
               C -48 -4, -38 -6, -25 -2
               Z" 
            fill="#FFFFFF"/>
      <path d="M -25 -2
               C -33 -4, -40 -2, -45 5
               C -40 3, -33 1, -25 5
               Z" 
            fill="#FFFFFF"/>
    </g>
    
    <!-- Right wing -->
    <g transform="rotate(15)">
      <path d="M 25 -25
               C 45 -30, 60 -28, 70 -20
               C 60 -22, 45 -24, 25 -18
               Z" 
            fill="#FFFFFF"/>
      <path d="M 25 -18
               C 42 -20, 55 -18, 65 -10
               C 55 -12, 42 -14, 25 -10
               Z" 
            fill="#FFFFFF"/>
      <path d="M 25 -10
               C 38 -12, 48 -10, 55 -2
               C 48 -4, 38 -6, 25 -2
               Z" 
            fill="#FFFFFF"/>
      <path d="M 25 -2
               C 33 -4, 40 -2, 45 5
               C 40 3, 33 1, 25 5
               Z" 
            fill="#FFFFFF"/>
    </g>
  </g>
</svg>